<!DOCTYPE svg PUBLIC "-//W3C//DTD SVG 1.1//EN" "http://www.w3.org/Graphics/SVG/1.1/DTD/svg11.dtd">
<!-- Uploaded to: SVG Repo, www.svgrepo.com, Transformed by: SVG Repo Mixer Tools -->
<svg height="800px" width="800px" version="1.1" id="Layer_1" xmlns="http://www.w3.org/2000/svg" xmlns:xlink="http://www.w3.org/1999/xlink" viewBox="-51.2 -51.2 614.40 614.40" xml:space="preserve" fill="#000000">
<g id="SVGRepo_bgCarrier" stroke-width="0" transform="translate(81.91935999999998,81.91935999999998), scale(0.68)">
<rect x="-51.2" y="-51.2" width="614.40" height="614.40" rx="307.2" fill="#0bdc49" strokewidth="0"/>
</g>
<g id="SVGRepo_tracerCarrier" stroke-linecap="round" stroke-linejoin="round"/>
<g id="SVGRepo_iconCarrier"> <path style="fill:#6040ec;" d="M256.032,511.964c-65.578,0-131.156-24.962-181.079-74.885c-6.378-6.378-6.38-16.72,0-23.099 c6.378-6.378,16.72-6.38,23.1,0c87.11,87.11,228.851,87.11,315.963,0c87.11-87.11,87.11-228.851,0-315.963 c-87.11-87.11-228.851-87.11-315.961,0c-56.361,56.361-78.483,139.241-57.733,216.299c2.345,8.711-2.814,17.673-11.525,20.018 c-8.707,2.345-17.673-2.814-20.018-11.525c-23.783-88.306,1.575-183.292,66.173-247.891c99.849-99.849,262.313-99.847,362.16,0 c99.847,99.849,99.847,262.313,0,362.16C387.187,487.001,321.61,511.964,256.032,511.964z"/> <circle style="fill:#ffffff;" cx="256.039" cy="256.006" r="154.595"/> <path style="fill:#6040ec;" d="M256.032,426.918c-94.246,0-170.921-76.675-170.921-170.92S161.786,85.076,256.032,85.076 s170.921,76.675,170.921,170.921S350.277,426.918,256.032,426.918z M256.032,117.743c-76.234,0-138.255,62.021-138.255,138.255 s62.021,138.255,138.255,138.255s138.255-62.021,138.255-138.255S332.266,117.743,256.032,117.743z"/> </g>
</svg>